<svg width="43" height="50" viewBox="0 0 43 50" fill="none" xmlns="http://www.w3.org/2000/svg">
<path d="M30.7821 12.841C29.2386 9.53085 26.4433 6.96942 23.0111 5.72023C19.579 4.47105 15.7912 4.63642 12.4811 6.17999C9.17088 7.72355 6.60945 10.5189 5.36026 13.951C4.11107 17.3831 4.27645 21.1709 5.82001 24.4811L18.3011 18.661L30.7821 12.841Z" fill="#2A3B5F"/>
<path d="M27.6619 14.2961C27.0886 13.0668 26.2789 11.9624 25.2789 11.0461C24.2789 10.1298 23.1082 9.41936 21.8336 8.95546C20.5591 8.49156 19.2056 8.28324 17.8505 8.3424C16.4955 8.40157 15.1653 8.72705 13.936 9.30027C12.7068 9.8735 11.6024 10.6832 10.6861 11.6832C9.76975 12.6833 9.05935 13.854 8.59545 15.1285C8.13155 16.4031 7.92323 17.7565 7.9824 19.1116C8.04156 20.4667 8.36705 21.7968 8.94027 23.0261L18.3011 18.6611L27.6619 14.2961Z" fill="#F8F8F9"/>
<path d="M24.5416 15.751C24.1595 14.9315 23.6196 14.1953 22.953 13.5844C22.2863 12.9735 21.5058 12.4999 20.6561 12.1906C19.8064 11.8814 18.9041 11.7425 18.0007 11.7819C17.0974 11.8214 16.2106 12.0384 15.3911 12.4205C14.5716 12.8026 13.8353 13.3425 13.2244 14.0091C12.6135 14.6758 12.1399 15.4563 11.8307 16.306C11.5214 17.1557 11.3825 18.058 11.422 18.9614C11.4614 19.8648 11.6784 20.7515 12.0605 21.571L18.3011 18.661L24.5416 15.751Z" fill="#2A3B5F"/>
<rect x="5.82001" y="24.4811" width="3.44283" height="9.18088" transform="rotate(-25 5.82001 24.4811)" fill="#2A3B5F"/>
<rect x="12.0605" y="21.571" width="3.44283" height="9.18088" transform="rotate(-25 12.0605 21.571)" fill="#2A3B5F"/>
<rect x="8.94028" y="23.0261" width="3.44283" height="9.18088" transform="rotate(-25 8.94028 23.0261)" fill="#F8F8F9"/>
<path d="M11.64 36.9621C13.1836 40.2723 15.9789 42.8337 19.411 44.0829C22.8431 45.3321 26.6309 45.1667 29.9411 43.6232C33.2513 42.0796 35.8127 39.2843 37.0619 35.8522C38.3111 32.4201 38.1457 28.6323 36.6021 25.3221L24.1211 31.1421L11.64 36.9621Z" fill="#2A3B5F"/>
<path d="M14.7603 35.5071C15.3335 36.7364 16.1433 37.8407 17.1433 38.7571C18.1433 39.6734 19.314 40.3838 20.5885 40.8477C21.8631 41.3116 23.2165 41.5199 24.5716 41.4608C25.9267 41.4016 27.2568 41.0761 28.4861 40.5029C29.7154 39.9297 30.8197 39.1199 31.7361 38.1199C32.6524 37.1199 33.3628 35.9492 33.8267 34.6746C34.2906 33.4001 34.4989 32.0466 34.4398 30.6916C34.3806 29.3365 34.0551 28.0064 33.4819 26.7771L24.1211 31.1421L14.7603 35.5071Z" fill="#F8F8F9"/>
<path d="M17.8805 34.0521C18.2627 34.8717 18.8025 35.6079 19.4692 36.2188C20.1359 36.8297 20.9163 37.3033 21.766 37.6125C22.6157 37.9218 23.518 38.0607 24.4214 38.0212C25.3248 37.9818 26.2116 37.7648 27.0311 37.3827C27.8506 37.0005 28.5868 36.4607 29.1977 35.794C29.8086 35.1273 30.2822 34.3469 30.5915 33.4972C30.9007 32.6475 31.0396 31.7452 31.0002 30.8418C30.9607 29.9384 30.7437 29.0516 30.3616 28.2321L24.1211 31.1421L17.8805 34.0521Z" fill="#2A3B5F"/>
<rect x="36.6021" y="25.3221" width="3.44283" height="9.18088" transform="rotate(155 36.6021 25.3221)" fill="#2A3B5F"/>
<rect x="30.3616" y="28.2321" width="3.44283" height="9.18088" transform="rotate(155 30.3616 28.2321)" fill="#2A3B5F"/>
<rect x="33.4819" y="26.7771" width="3.44283" height="9.18088" transform="rotate(155 33.4819 26.7771)" fill="#F8F8F9"/>
</svg>
