<svg width="291" height="38" viewBox="0 0 291 38" fill="none" xmlns="http://www.w3.org/2000/svg">
<path d="M10.7898 37H0.136364L12.1392 0.636363H25.6335L37.6364 37H26.983L19.0284 10.6506H18.7443L10.7898 37ZM8.80114 22.6534H28.8295V30.0398H8.80114V22.6534ZM59.3249 12C59.2302 10.8163 58.7863 9.89299 57.9933 9.23011C57.212 8.56723 56.0224 8.23579 54.4244 8.23579C53.4064 8.23579 52.5719 8.36008 51.9208 8.60866C51.2816 8.84541 50.8081 9.17093 50.5004 9.58523C50.1926 9.99953 50.0328 10.473 50.021 11.0057C49.9973 11.4437 50.0742 11.8402 50.2518 12.1953C50.4412 12.5386 50.7371 12.8523 51.1396 13.1364C51.542 13.4086 52.0569 13.6572 52.6843 13.8821C53.3117 14.107 54.0574 14.3082 54.9215 14.4858L57.9045 15.125C59.9168 15.5511 61.6391 16.1134 63.0714 16.8118C64.5037 17.5102 65.6755 18.3329 66.587 19.2798C67.4985 20.215 68.1673 21.2685 68.5934 22.4403C69.0314 23.6122 69.2563 24.8906 69.2681 26.2756C69.2563 28.6667 68.6585 30.6908 67.4748 32.348C66.2911 34.0052 64.5984 35.2659 62.3967 36.13C60.2068 36.9941 57.573 37.4261 54.4954 37.4261C51.3349 37.4261 48.5768 36.9586 46.2212 36.0234C43.8775 35.0883 42.0546 33.6501 40.7525 31.7088C39.4622 29.7557 38.8112 27.258 38.7994 24.2159H48.1744C48.2335 25.3286 48.5117 26.2637 49.0089 27.0213C49.506 27.7789 50.2044 28.353 51.104 28.7436C52.0155 29.1342 53.0986 29.3295 54.3533 29.3295C55.4068 29.3295 56.2887 29.1993 56.9989 28.9389C57.7092 28.6785 58.2478 28.3175 58.6147 27.8558C58.9817 27.3942 59.171 26.8674 59.1829 26.2756C59.171 25.7192 58.9876 25.2339 58.6325 24.8196C58.2892 24.3935 57.721 24.0147 56.9279 23.6832C56.1348 23.34 55.0636 23.0204 53.7141 22.7244L50.092 21.9432C46.8723 21.2448 44.3332 20.0788 42.4748 18.4453C40.6282 16.8 39.7108 14.5568 39.7227 11.7159C39.7108 9.40767 40.3263 7.38944 41.5692 5.66122C42.824 3.92116 44.5581 2.56581 46.7717 1.59517C48.997 0.624525 51.5479 0.139203 54.4244 0.139203C57.36 0.139203 59.899 0.630444 62.0415 1.61293C64.1841 2.59541 65.8353 3.98035 66.9954 5.76776C68.1673 7.54332 68.7591 9.62074 68.771 12H59.3249ZM92.6257 12C92.531 10.8163 92.0871 9.89299 91.294 9.23011C90.5128 8.56723 89.3232 8.23579 87.7251 8.23579C86.7071 8.23579 85.8726 8.36008 85.2216 8.60866C84.5824 8.84541 84.1089 9.17093 83.8011 9.58523C83.4934 9.99953 83.3336 10.473 83.3217 11.0057C83.2981 11.4437 83.375 11.8402 83.5526 12.1953C83.742 12.5386 84.0379 12.8523 84.4403 13.1364C84.8428 13.4086 85.3577 13.6572 85.9851 13.8821C86.6125 14.107 87.3582 14.3082 88.2223 14.4858L91.2053 15.125C93.2176 15.5511 94.9399 16.1134 96.3722 16.8118C97.8045 17.5102 98.9763 18.3329 99.8878 19.2798C100.799 20.215 101.468 21.2685 101.894 22.4403C102.332 23.6122 102.557 24.8906 102.569 26.2756C102.557 28.6667 101.959 30.6908 100.776 32.348C99.5919 34.0052 97.8991 35.2659 95.6974 36.13C93.5076 36.9941 90.8738 37.4261 87.7962 37.4261C84.6357 37.4261 81.8776 36.9586 79.522 36.0234C77.1783 35.0883 75.3554 33.6501 74.0533 31.7088C72.763 29.7557 72.112 27.258 72.1001 24.2159H81.4751C81.5343 25.3286 81.8125 26.2637 82.3097 27.0213C82.8068 27.7789 83.5052 28.353 84.4048 28.7436C85.3163 29.1342 86.3994 29.3295 87.6541 29.3295C88.7076 29.3295 89.5895 29.1993 90.2997 28.9389C91.0099 28.6785 91.5485 28.3175 91.9155 27.8558C92.2824 27.3942 92.4718 26.8674 92.4837 26.2756C92.4718 25.7192 92.2884 25.2339 91.9332 24.8196C91.59 24.3935 91.0218 24.0147 90.2287 23.6832C89.4356 23.34 88.3643 23.0204 87.0149 22.7244L83.3928 21.9432C80.1731 21.2448 77.634 20.0788 75.7756 18.4453C73.929 16.8 73.0116 14.5568 73.0234 11.7159C73.0116 9.40767 73.6271 7.38944 74.87 5.66122C76.1248 3.92116 77.8589 2.56581 80.0724 1.59517C82.2978 0.624525 84.8487 0.139203 87.7251 0.139203C90.6607 0.139203 93.1998 0.630444 95.3423 1.61293C97.4848 2.59541 99.1361 3.98035 100.296 5.76776C101.468 7.54332 102.06 9.62074 102.072 12H92.6257ZM116.196 0.636363V37H106.324V0.636363H116.196ZM140.477 12C140.383 10.8163 139.939 9.89299 139.146 9.23011C138.364 8.56723 137.175 8.23579 135.577 8.23579C134.559 8.23579 133.724 8.36008 133.073 8.60866C132.434 8.84541 131.96 9.17093 131.653 9.58523C131.345 9.99953 131.185 10.473 131.173 11.0057C131.15 11.4437 131.227 11.8402 131.404 12.1953C131.594 12.5386 131.889 12.8523 132.292 13.1364C132.694 13.4086 133.209 13.6572 133.837 13.8821C134.464 14.107 135.21 14.3082 136.074 14.4858L139.057 15.125C141.069 15.5511 142.791 16.1134 144.224 16.8118C145.656 17.5102 146.828 18.3329 147.739 19.2798C148.651 20.215 149.32 21.2685 149.746 22.4403C150.184 23.6122 150.409 24.8906 150.42 26.2756C150.409 28.6667 149.811 30.6908 148.627 32.348C147.443 34.0052 145.751 35.2659 143.549 36.13C141.359 36.9941 138.725 37.4261 135.648 37.4261C132.487 37.4261 129.729 36.9586 127.374 36.0234C125.03 35.0883 123.207 33.6501 121.905 31.7088C120.615 29.7557 119.964 27.258 119.952 24.2159H129.327C129.386 25.3286 129.664 26.2637 130.161 27.0213C130.658 27.7789 131.357 28.353 132.256 28.7436C133.168 29.1342 134.251 29.3295 135.506 29.3295C136.559 29.3295 137.441 29.1993 138.151 28.9389C138.862 28.6785 139.4 28.3175 139.767 27.8558C140.134 27.3942 140.323 26.8674 140.335 26.2756C140.323 25.7192 140.14 25.2339 139.785 24.8196C139.442 24.3935 138.873 24.0147 138.08 23.6832C137.287 23.34 136.216 23.0204 134.866 22.7244L131.244 21.9432C128.025 21.2448 125.486 20.0788 123.627 18.4453C121.781 16.8 120.863 14.5568 120.875 11.7159C120.863 9.40767 121.479 7.38944 122.722 5.66122C123.976 3.92116 125.71 2.56581 127.924 1.59517C130.149 0.624525 132.7 0.139203 135.577 0.139203C138.512 0.139203 141.051 0.630444 143.194 1.61293C145.336 2.59541 146.988 3.98035 148.148 5.76776C149.32 7.54332 149.911 9.62074 149.923 12H140.477ZM153.181 8.59091V0.636363H184.787V8.59091H173.849V37H164.119V8.59091H153.181ZM193.358 37H182.705L194.708 0.636363H208.202L220.205 37H209.551L201.597 10.6506H201.313L193.358 37ZM191.369 22.6534H211.398V30.0398H191.369V22.6534ZM255.17 0.636363V37H246.931L233.792 17.8949H233.579V37H223.707V0.636363H232.088L245.014 19.6705H245.298V0.636363H255.17ZM258.846 8.59091V0.636363H290.451V8.59091H279.513V37H269.783V8.59091H258.846Z" fill="#2A3B5F"/>
</svg>
