<svg width="71" height="24" viewBox="0 0 71 24" fill="none" xmlns="http://www.w3.org/2000/svg">
<path d="M7.07386 23H0.681818L7.88352 1.18182H15.9801L23.1818 23H16.7898L12.017 7.19034H11.8466L7.07386 23ZM5.88068 14.392H17.8977V18.8239H5.88068V14.392ZM36.195 8C36.1381 7.28977 35.8718 6.7358 35.396 6.33807C34.9272 5.94034 34.2134 5.74148 33.2546 5.74148C32.6438 5.74148 32.1431 5.81605 31.7525 5.9652C31.369 6.10724 31.0849 6.30256 30.9002 6.55114C30.7156 6.79972 30.6197 7.08381 30.6126 7.40341C30.5984 7.66619 30.6445 7.90412 30.7511 8.11719C30.8647 8.32315 31.0423 8.51136 31.2837 8.68182C31.5252 8.84517 31.8342 8.99432 32.2106 9.12926C32.587 9.2642 33.0344 9.38494 33.5529 9.49148L35.3427 9.875C36.5501 10.1307 37.5835 10.468 38.4428 10.8871C39.3022 11.3061 40.0053 11.7997 40.5522 12.3679C41.0991 12.929 41.5004 13.5611 41.756 14.2642C42.0188 14.9673 42.1538 15.7344 42.1609 16.5653C42.1538 18 41.7951 19.2145 41.0849 20.2088C40.3746 21.2031 39.359 21.9595 38.038 22.478C36.7241 22.9964 35.1438 23.2557 33.2972 23.2557C31.4009 23.2557 29.7461 22.9751 28.3327 22.4141C26.9265 21.853 25.8327 20.9901 25.0515 19.8253C24.2773 18.6534 23.8867 17.1548 23.8796 15.3295H29.5046C29.5401 15.9972 29.707 16.5582 30.0053 17.0128C30.3036 17.4673 30.7227 17.8118 31.2624 18.0462C31.8093 18.2805 32.4592 18.3977 33.212 18.3977C33.8441 18.3977 34.3732 18.3196 34.7994 18.1634C35.2255 18.0071 35.5487 17.7905 35.7688 17.5135C35.989 17.2365 36.1026 16.9205 36.1097 16.5653C36.1026 16.2315 35.9925 15.9403 35.7795 15.6918C35.5735 15.4361 35.2326 15.2088 34.7567 15.0099C34.2809 14.804 33.6381 14.6122 32.8285 14.4347L30.6552 13.9659C28.7234 13.5469 27.1999 12.8473 26.0849 11.8672C24.9769 10.88 24.4265 9.53409 24.4336 7.82955C24.4265 6.4446 24.7958 5.23366 25.5415 4.19673C26.2944 3.1527 27.3349 2.33949 28.663 1.7571C29.9982 1.17472 31.5288 0.883522 33.2546 0.883522C35.016 0.883522 36.5394 1.17827 37.8249 1.76776C39.1104 2.35724 40.1012 3.18821 40.7972 4.26065C41.5004 5.32599 41.8555 6.57244 41.8626 8H36.195ZM50.3374 1.18182V23H44.4141V1.18182H50.3374ZM64.9059 8C64.8491 7.28977 64.5827 6.7358 64.1069 6.33807C63.6381 5.94034 62.9244 5.74148 61.9656 5.74148C61.3548 5.74148 60.854 5.81605 60.4634 5.9652C60.0799 6.10724 59.7958 6.30256 59.6112 6.55114C59.4265 6.79972 59.3306 7.08381 59.3235 7.40341C59.3093 7.66619 59.3555 7.90412 59.462 8.11719C59.5756 8.32315 59.7532 8.51136 59.9947 8.68182C60.2362 8.84517 60.5451 8.99432 60.9215 9.12926C61.2979 9.2642 61.7454 9.38494 62.2638 9.49148L64.0536 9.875C65.261 10.1307 66.2944 10.468 67.1538 10.8871C68.0131 11.3061 68.7163 11.7997 69.2631 12.3679C69.81 12.929 70.2113 13.5611 70.467 14.2642C70.7298 14.9673 70.8647 15.7344 70.8718 16.5653C70.8647 18 70.506 19.2145 69.7958 20.2088C69.0856 21.2031 68.07 21.9595 66.7489 22.478C65.435 22.9964 63.8548 23.2557 62.0082 23.2557C60.1119 23.2557 58.457 22.9751 57.0437 22.4141C55.6374 21.853 54.5437 20.9901 53.7624 19.8253C52.9883 18.6534 52.5977 17.1548 52.5906 15.3295H58.2156C58.2511 15.9972 58.418 16.5582 58.7163 17.0128C59.0146 17.4673 59.4336 17.8118 59.9734 18.0462C60.5202 18.2805 61.1701 18.3977 61.9229 18.3977C62.555 18.3977 63.0842 18.3196 63.5103 18.1634C63.9364 18.0071 64.2596 17.7905 64.4798 17.5135C64.6999 17.2365 64.8136 16.9205 64.8207 16.5653C64.8136 16.2315 64.7035 15.9403 64.4904 15.6918C64.2844 15.4361 63.9435 15.2088 63.4677 15.0099C62.9918 14.804 62.3491 14.6122 61.5394 14.4347L59.3661 13.9659C57.4343 13.5469 55.9109 12.8473 54.7958 11.8672C53.6879 10.88 53.1374 9.53409 53.1445 7.82955C53.1374 6.4446 53.5067 5.23366 54.2525 4.19673C55.0053 3.1527 56.0458 2.33949 57.3739 1.7571C58.7092 1.17472 60.2397 0.883522 61.9656 0.883522C63.7269 0.883522 65.2504 1.17827 66.5359 1.76776C67.8214 2.35724 68.8121 3.18821 69.5082 4.26065C70.2113 5.32599 70.5664 6.57244 70.5735 8H64.9059Z" fill="#2A3B5F"/>
</svg>
